<?xml version="1.0" encoding="UTF-8" standalone="no"?> <svg xmlns="http://www.w3.org/2000/svg" viewBox="0 0 32 32"><title>Time Management</title><g id="Time_Management" data-name="Time Management"><path d="M8.754,17l1.5-.375a10,10,0,0,1,5.588.214l.175.059a2.009,2.009,0,0,0,.631.1H20a4.007,4.007,0,0,1,3.78,2.691l2.652-.331A9.994,9.994,0,1,0,8.459,17ZM17,9a1,1,0,0,1,2,0v4h2a1,1,0,0,1,0,2H18a1,1,0,0,1-1-1Z"/><path d="M29.93,22.96a2.283,2.283,0,0,0-2.21-1.73,2.635,2.635,0,0,0-.28.02l-5.69.71L22,21a2,2,0,0,0-2-2H16.649a4,4,0,0,1-1.265-.2l-.174-.058a8,8,0,0,0-4.47-.172L9,19v7l2.31,1.16a8.081,8.081,0,0,0,3.58.84h5.25a8.028,8.028,0,0,0,2.53-.41l5.77-1.92A2.277,2.277,0,0,0,29.93,22.96Z"/><rect x="2" y="17" width="5" height="11" rx="2"/></g></svg>